<?xml version="1.0" standalone="no"?>
<!DOCTYPE svg PUBLIC "-//W3C//DTD SVG 20010904//EN"
 "http://www.w3.org/TR/2001/REC-SVG-20010904/DTD/svg10.dtd">
<svg version="1.0" xmlns="http://www.w3.org/2000/svg"
 width="500.000000pt" height="500.000000pt" viewBox="0 0 500.000000 500.000000"
 preserveAspectRatio="xMidYMid meet">

<g transform="translate(0.000000,500.000000) scale(0.100000,-0.100000)"
fill="#000000" stroke="none">
<path d="M2607 4108 c-35 -29 -90 -73 -122 -98 -100 -78 -235 -237 -205 -241
20 -3 25 -4 36 -11 6 -4 25 2 43 13 29 17 31 22 19 37 -11 15 -11 16 2 7 20
-14 66 -13 63 2 -1 6 5 10 15 9 9 -2 27 4 40 12 12 8 22 12 22 8 0 -3 13 8 30
25 16 17 37 54 46 82 9 29 23 64 30 79 19 37 54 128 50 128 -2 0 -33 -24 -69
-52z"/>
<path d="M2545 3859 c-4 -6 -5 -12 -2 -15 2 -3 7 2 10 11 7 17 1 20 -8 4z"/>
<path d="M2700 3678 c-29 -62 -70 -151 -90 -198 -38 -88 -75 -160 -66 -125 6
20 6 20 -9 0 -15 -19 -16 -19 -21 3 -4 12 -11 22 -16 22 -5 0 -6 -4 -3 -10 8
-13 -11 -13 -36 1 -16 8 -25 7 -39 -6 -17 -15 -19 -15 -30 2 -9 16 -10 15 -5
-7 5 -22 4 -23 -5 -7 -10 16 -20 1 -72 -105 -33 -68 -84 -177 -113 -243 -29
-66 -79 -174 -110 -240 -85 -180 -91 -193 -134 -289 -23 -48 -39 -92 -36 -96
3 -4 -2 -13 -10 -20 -21 -17 -13 15 19 78 46 91 65 151 59 189 -4 24 -2 38 8
44 8 5 9 9 3 9 -7 0 -15 17 -19 38 -4 20 -10 42 -15 47 -4 6 -13 29 -20 53 -9
37 -14 42 -26 31 -12 -10 -13 -9 -8 5 3 9 1 16 -6 16 -6 0 -9 4 -6 9 3 5 -2
12 -11 15 -10 4 -14 4 -11 0 4 -3 -5 -25 -19 -47 -14 -23 -45 -87 -69 -142
-23 -55 -65 -152 -94 -215 -29 -63 -92 -207 -140 -320 -82 -192 -120 -279
-256 -590 -30 -69 -54 -128 -54 -131 0 -3 34 -4 76 -3 73 2 79 4 123 40 25 22
49 38 53 37 4 -2 4 5 1 14 -4 10 -2 14 5 9 6 -4 21 11 36 36 28 47 34 44 11
-5 -43 -94 -73 -172 -65 -175 4 -2 54 18 111 43 57 25 137 60 177 78 72 32 72
32 88 87 21 75 53 127 112 182 103 96 180 117 462 125 212 6 363 -5 451 -31
135 -41 223 -127 264 -258 l23 -73 178 -77 c99 -43 183 -78 187 -78 5 0 5 10
2 23 -5 17 -4 18 4 7 5 -8 12 -12 15 -10 2 3 27 68 56 145 36 98 50 148 46
168 -3 15 -40 105 -82 200 -42 95 -91 206 -109 247 -18 41 -66 149 -106 240
-150 341 -197 448 -239 535 -24 50 -43 92 -43 95 0 3 -8 13 -18 22 -18 17 -19
16 -30 -5 -7 -12 -14 -56 -17 -97 -2 -41 -8 -80 -13 -86 -5 -6 -10 -39 -12
-73 -2 -33 -7 -64 -10 -68 -4 -3 -7 -11 -7 -17 0 -6 5 -4 11 4 9 12 10 12 5
-3 -3 -11 3 -39 14 -64 11 -26 19 -48 17 -50 -2 -2 -17 25 -32 59 -15 35 -41
92 -58 128 -115 248 -186 427 -198 498 -11 71 1 136 49 257 33 83 51 192 29
178 -4 -3 -7 3 -5 13 2 15 -3 19 -23 18 -18 0 -25 4 -22 13 3 7 3 13 1 13 -3
0 -29 -51 -58 -112z m-160 -355 c0 -5 -5 -15 -10 -23 -7 -12 -9 -10 -7 8 1 19
17 33 17 15z m27 -400 c30 -65 86 -183 124 -262 38 -79 69 -148 69 -152 0 -5
-47 -9 -104 -9 -103 0 -104 0 -157 -36 -86 -59 -270 -199 -319 -243 -31 -28
-54 -41 -75 -41 -44 0 -101 -18 -185 -58 -76 -35 -177 -126 -221 -197 -11 -16
-19 -24 -19 -18 0 7 33 50 73 95 39 45 73 85 73 88 8 31 18 50 30 54 8 3 14
12 14 21 0 8 4 15 8 15 4 0 16 14 26 31 23 39 121 139 136 139 6 0 8 4 5 10
-4 6 1 7 12 3 10 -3 15 -3 11 2 -4 4 27 25 69 46 42 22 81 44 88 49 6 5 14 8
16 6 2 -2 13 5 23 15 11 11 15 19 9 19 -10 0 -118 -21 -183 -35 -14 -3 -2 3
25 14 28 11 62 20 76 20 26 1 89 51 89 71 0 5 20 52 44 102 24 51 74 155 109
231 36 75 69 137 72 137 4 0 31 -53 62 -117z m-508 -466 c-17 -14 -98 -54 -94
-46 7 10 75 48 89 49 5 0 7 -1 5 -3z m-179 -137 c-6 -11 -13 -20 -16 -20 -2 0
0 9 6 20 6 11 13 20 16 20 2 0 0 -9 -6 -20z m-34 -67 c-8 -15 -15 -25 -16 -21
0 12 23 58 27 54 3 -2 -2 -17 -11 -33z m787 -40 c-40 -2 -106 -2 -145 0 -40 1
-8 3 72 3 80 0 112 -2 73 -3z m160 -10 c-13 -2 -35 -2 -50 0 -16 2 -5 4 22 4
28 0 40 -2 28 -4z m84 -9 c-3 -3 -12 -4 -19 -1 -8 3 -5 6 6 6 11 1 17 -2 13
-5z m-1221 -361 c-8 -15 -15 -25 -16 -21 0 12 23 58 27 54 3 -2 -2 -17 -11
-33z m-33 -68 c-3 -9 -8 -14 -10 -11 -3 3 -2 9 2 15 9 16 15 13 8 -4z m-42
-96 c-11 -24 -20 -41 -20 -37 -1 12 31 89 35 85 3 -2 -4 -24 -15 -48z"/>
<path d="M2289 2479 l-24 -20 25 12 c14 7 39 16 55 20 l30 7 -31 1 c-19 1 -41
-7 -55 -20z"/>
</g>
</svg>
